<svg width="149" height="140" viewBox="0 0 149 140" fill="none" xmlns="http://www.w3.org/2000/svg">
<g clip-path="url(#clip0_237_319)">
<path fill-rule="evenodd" clip-rule="evenodd" d="M74.5 0C103.148 0 126.366 23.2181 126.366 51.8657C126.366 80.5132 103.148 103.731 74.5 103.731C45.8524 103.731 22.6343 80.5132 22.6343 51.8657C22.6343 23.2181 45.8524 0 74.5 0Z" fill="black"/>
<path fill-rule="evenodd" clip-rule="evenodd" d="M53.868 52.7317C53.7236 33.3362 53.6546 34.1836 53.6546 34.1836C62.0844 34.1585 71.0414 30.5054 74.5 26.7079C78.7745 30.3673 85.8297 33.0475 94.9249 34.1836L95.3454 52.6501C94.8496 64.4192 84.4488 72.485 74.682 77.0232C62.3919 70.8907 55.5125 64.551 53.8617 52.7317" fill="white"/>
<path fill-rule="evenodd" clip-rule="evenodd" d="M50.9995 52.851C50.8363 30.7627 50.7609 31.7294 50.7609 31.7294C60.3582 31.698 70.5644 27.5364 74.5 23.218C79.3646 27.3795 87.4052 30.4363 97.762 31.7294L98.2391 52.7631C97.6741 66.1642 85.8297 75.3535 74.7071 80.5194C60.7097 73.5395 52.8762 66.3148 50.9995 52.851ZM47.0701 53.0142C46.8818 27.2351 46.7877 28.3587 46.7877 28.3587C57.9919 28.3273 69.9053 23.4627 74.4937 18.4287C80.1743 23.287 89.5582 26.8523 101.647 28.3587L102.206 52.9012C101.553 68.5431 87.7191 79.264 74.7448 85.3023C58.4061 77.155 49.267 68.7252 47.0764 53.0142H47.0701Z" fill="white"/>
<path fill-rule="evenodd" clip-rule="evenodd" d="M69.6543 49.2418C69.3153 49.3673 68.5119 49.4929 68.0913 49.5996C67.6143 49.7251 67.0745 49.926 66.5849 50.0327C66.1141 50.2586 65.4174 50.403 65.0408 50.6541L65.0219 62.8688C65.7061 63.1011 66.2208 63.3584 67.087 63.6221C71.6754 65.0344 77.312 65.0344 81.9004 63.6221C82.4402 63.4589 83.5324 63.1011 83.9655 62.8437V50.6666C83.7081 50.4846 82.7792 50.1708 82.3963 50.039C82.2331 50.0138 81.8125 49.8695 81.6431 49.8193C81.3794 49.7439 81.1472 49.6812 80.8898 49.6121C80.5069 49.5117 79.6533 49.3736 79.3332 49.2418C78.9879 49.223 78.536 49.1163 78.1782 49.066C75.7554 48.7396 73.1944 48.7396 70.7653 49.0723C70.4326 49.1163 69.9681 49.2292 69.6543 49.2418ZM75.6612 56.3284C75.6361 57.3013 75.6612 58.3118 75.6612 59.2848C75.6612 59.7744 75.5545 60.1259 75.2783 60.3644C74.9959 60.6092 74.5816 60.7473 74.1548 60.6155C73.2509 60.333 73.3325 59.5045 73.3325 58.519C73.3325 58.2993 73.3639 56.4853 73.3137 56.3597C73.2823 56.2719 73.05 56.0961 72.9684 55.9769C71.8951 54.5646 73.0689 52.512 74.8829 52.8698C76.7785 53.2402 76.8036 55.7007 75.6675 56.3221L75.6612 56.3284Z" fill="#ED1C24"/>
<path fill-rule="evenodd" clip-rule="evenodd" d="M66.5849 50.0328C67.0745 49.9324 67.6143 49.7253 68.0913 49.5997C68.5056 49.493 69.3153 49.3675 69.6543 49.2419C69.6103 48.5076 69.5915 46.976 69.6919 46.2793C70.0183 44.0071 71.9704 42.0738 74.5125 42.0926C76.3956 42.1052 77.6761 43.1095 78.4481 44.1451C79.5027 45.5637 79.421 47.4719 79.3332 49.2357C79.6596 49.3675 80.5069 49.4993 80.8898 49.606C81.1535 49.675 81.3794 49.7378 81.6431 49.8131C81.8063 49.8634 82.2331 50.0077 82.3963 50.0328C82.3837 46.4362 82.6411 44.6787 80.802 42.1868C77.7263 38.0189 71.2988 37.9813 68.1918 42.1617C66.1581 44.8984 66.6539 46.907 66.5786 50.0265" fill="black"/>
<path d="M0 130.471H5.33533C5.53619 132.002 6.11993 133.076 7.08029 133.684C8.09087 134.4 9.49061 134.758 11.2732 134.758C12.8487 134.758 14.0413 134.475 14.851 133.917C15.6608 133.358 16.0688 132.548 16.0688 131.481C16.0688 129.856 13.7903 128.537 9.2207 127.521L9.07006 127.452C9.07006 127.452 8.8692 127.401 8.4612 127.295C5.87514 126.736 4.15528 126.152 3.28907 125.55C2.2785 124.991 1.56921 124.175 1.15494 123.108C0.646516 122.198 0.395442 121.03 0.395442 119.605C0.395442 117.114 1.26165 115.161 2.98778 113.737C4.71392 112.368 7.23094 111.684 10.5326 111.684C13.6333 111.684 16.0185 112.393 17.6945 113.818C19.4143 115.4 20.3307 117.453 20.4312 119.988H17.3932C16.2257 119.988 15.3846 119.455 14.8761 118.381C14.6251 117.873 14.2673 117.44 13.8091 117.082C12.8927 116.417 11.6498 116.09 10.0806 116.09C8.51142 116.09 7.46318 116.367 6.80411 116.932C6.04461 117.49 5.66172 118.275 5.66172 119.292C5.66172 120.66 7.13051 121.683 10.0681 122.342C10.9343 122.593 11.562 122.75 11.9637 122.8C12.8801 123.108 13.671 123.346 14.3614 123.522C15.0456 123.698 15.5917 123.842 15.9934 123.937C16.709 124.244 17.4183 124.545 18.1338 124.853C19.1444 125.462 19.9416 126.253 20.5002 127.219C21.0588 128.286 21.3413 129.454 21.3413 130.722C21.3413 133.465 20.4249 135.593 18.592 137.124C16.7655 138.549 14.1731 139.258 10.8213 139.258C7.46946 139.258 4.78296 138.524 3.05683 137.049C1.18005 135.574 0.163198 133.383 0.00627686 130.483" fill="#ED1C24"/>
<path d="M35.7341 137.783C34.6671 138.342 33.5372 138.687 32.3446 138.819C31.152 138.944 30.0975 139.007 29.1811 139.007C27.3483 139.007 25.7477 138.511 24.3793 137.52C23.0109 136.534 22.3205 134.896 22.3205 132.605C22.3205 130.464 22.9419 128.945 24.191 128.029C25.4338 127.113 27.0219 126.504 28.9551 126.196C29.2062 126.196 29.5138 126.165 29.8716 126.083C30.2293 126.008 30.6311 125.939 31.0955 125.889C33.3301 125.587 34.4474 124.928 34.4474 123.911C34.4474 123.146 34.0519 122.65 33.2673 122.424C32.4827 122.198 31.7609 122.078 31.0955 122.078C30.3863 122.078 29.7523 122.185 29.1937 122.392C28.635 122.599 28.2333 122.989 27.9759 123.56H22.8729C23.0737 121.978 23.783 120.679 25.007 119.662C26.3753 118.494 28.3337 117.911 30.8696 117.911C33.713 117.911 35.8471 118.394 37.272 119.361C38.747 120.371 39.4814 121.796 39.4814 123.623V130.552C39.4814 132.586 39.1111 134.174 38.3767 135.316C37.636 136.452 36.7573 137.281 35.7467 137.783M34.5227 128.443C33.8071 128.801 32.8217 129.127 31.5475 129.429C30.38 129.68 29.79 129.812 29.79 129.812C28.8735 130.063 28.2082 130.395 27.8002 130.797C27.4424 131.356 27.2667 131.914 27.2667 132.473C27.2667 133.232 27.4926 133.841 27.9571 134.3C28.409 134.708 29.0744 134.908 29.9406 134.908C31.3654 134.908 32.489 134.5 33.2987 133.684C34.1084 132.875 34.5227 131.764 34.5227 130.339V128.437V128.443Z" fill="#ED1C24"/>
<path d="M40.6238 138.618V117.747C40.6238 115.921 41.1071 114.552 42.0738 113.636C42.9902 112.77 44.4841 112.343 46.568 112.343C47.0764 112.343 47.4844 112.368 47.792 112.418C48.3506 112.418 48.7774 112.443 49.085 112.494V116.668H47.7167C47.0074 116.668 46.4927 116.774 46.1977 116.975C45.9466 117.182 45.8148 117.59 45.8148 118.212V119.599H49.0913V120.741C49.0913 121.507 48.8402 122.135 48.3318 122.612C47.8234 123.102 47.2396 123.34 46.5805 123.34H45.821V138.624H40.6364L40.6238 138.618Z" fill="#ED1C24"/>
<path d="M53.6169 126.416H61.3814C61.2809 125.054 60.9294 124.037 60.3143 123.384C59.6552 122.675 58.7137 122.323 57.5023 122.323C56.385 122.323 55.4686 122.675 54.7593 123.384C54.0437 124.093 53.6671 125.104 53.6169 126.416ZM62.7497 132.379H66.5598C66.0011 134.513 64.9341 136.132 63.3649 137.25C61.7894 138.417 59.8122 139.007 57.4269 139.007C54.5333 139.007 52.2674 138.066 50.6417 136.189C49.0097 134.362 48.2 131.751 48.2 128.349C48.2 124.947 48.9846 122.568 50.5663 120.742C52.1983 118.865 54.458 117.923 57.3516 117.923C60.4022 117.923 62.756 118.833 64.4319 120.66C66.0576 122.53 66.8673 125.142 66.8673 128.487V129.316C66.8673 129.567 66.8422 129.743 66.792 129.849H53.6232C53.6734 131.437 54.05 132.611 54.7656 133.377C55.4246 134.193 56.4164 134.607 57.7345 134.607C58.6007 134.607 59.3351 134.425 59.944 134.067C60.0946 134.023 60.239 133.929 60.3582 133.804C60.4901 133.678 60.6219 133.54 60.7788 133.383C60.8227 133.232 61.0173 133.025 61.3437 132.774C61.6764 132.523 62.1471 132.391 62.756 132.391L62.7497 132.379Z" fill="#ED1C24"/>
<path d="M82.1829 132.379H85.9929C85.4343 134.513 84.3672 136.132 82.798 137.25C81.2225 138.417 79.2453 139.007 76.8601 139.007C73.9602 139.007 71.7068 138.066 70.0811 136.189C68.4554 134.362 67.6457 131.751 67.6457 128.349C67.6457 124.947 68.4303 122.568 70.0058 120.742C71.6315 118.865 73.8912 117.923 76.7848 117.923C79.8353 117.923 82.1892 118.84 83.8651 120.666C84.7752 121.783 85.4406 123.077 85.8423 124.552H80.5132C80.2622 124.037 80.0048 123.654 79.7537 123.403C79.0884 122.687 78.1531 122.33 76.9354 122.33C75.8244 122.33 74.908 122.687 74.1987 123.397C73.2823 124.42 72.8304 126.096 72.8304 128.431C72.8304 130.766 73.2823 132.423 74.1987 133.389C74.8578 134.199 75.8433 134.613 77.1677 134.613C78.0276 134.613 78.7683 134.431 79.3708 134.074C79.5278 134.03 79.6659 133.935 79.7914 133.81C79.9169 133.684 80.055 133.546 80.2057 133.389C80.3124 133.239 80.5132 133.032 80.8145 132.781C81.1221 132.529 81.574 132.398 82.1829 132.398" fill="black"/>
<path d="M86.9031 112.418H89.6523C90.3616 112.418 90.9705 112.669 91.4852 113.178C91.9936 113.686 92.2447 114.289 92.2447 114.998V116.592H86.9031V112.418ZM86.9031 118.363H89.6523C90.3616 118.363 90.9705 118.614 91.4852 119.122C91.9936 119.63 92.2447 120.239 92.2447 120.949V138.618H86.9031V118.363Z" fill="black"/>
<path d="M93.2427 138.618V128.789C93.2427 126.805 93.5377 125.142 94.1214 123.798C94.7052 122.449 95.5024 121.369 96.5255 120.553C97.4921 119.794 98.6219 119.235 99.915 118.877C101.208 118.52 102.539 118.344 103.913 118.344H104.679V123.761H102.928C101.453 123.761 100.361 124.119 99.6514 124.828C98.9421 125.543 98.5843 126.654 98.5843 128.18V138.618H93.2427Z" fill="black"/>
<path d="M119.285 132.379H123.095C122.537 134.513 121.47 136.132 119.9 137.25C118.325 138.417 116.348 139.007 113.963 139.007C111.063 139.007 108.809 138.066 107.184 136.189C105.558 134.362 104.748 131.751 104.748 128.349C104.748 124.947 105.533 122.568 107.108 120.742C108.734 118.865 110.994 117.923 113.887 117.923C116.938 117.923 119.292 118.84 120.968 120.666C121.878 121.783 122.543 123.077 122.945 124.552H117.616C117.365 124.037 117.107 123.654 116.856 123.403C116.191 122.687 115.256 122.33 114.038 122.33C112.927 122.33 112.01 122.687 111.301 123.397C110.385 124.42 109.933 126.096 109.933 128.431C109.933 130.766 110.385 132.423 111.301 133.389C111.96 134.199 112.946 134.613 114.27 134.613C115.13 134.613 115.871 134.431 116.473 134.074C116.63 134.03 116.768 133.935 116.894 133.81C117.019 133.684 117.158 133.546 117.308 133.389C117.415 133.239 117.616 133.032 117.917 132.781C118.225 132.529 118.677 132.398 119.285 132.398" fill="black"/>
<path d="M124.162 112.418H126.912C127.621 112.418 128.23 112.657 128.745 113.14C129.253 113.63 129.504 114.22 129.504 114.935V138.618H124.162V112.418Z" fill="black"/>
<path d="M135.75 126.416H143.514C143.414 125.054 143.062 124.037 142.447 123.384C141.788 122.675 140.846 122.323 139.635 122.323C138.518 122.323 137.601 122.675 136.892 123.384C136.176 124.093 135.8 125.104 135.75 126.416ZM144.882 132.379H148.692C148.134 134.513 147.067 136.132 145.498 137.25C143.922 138.417 141.945 139.007 139.56 139.007C136.666 139.007 134.4 138.066 132.774 136.189C131.142 134.362 130.333 131.751 130.333 128.349C130.333 124.947 131.117 122.568 132.699 120.742C134.331 118.865 136.591 117.923 139.484 117.923C142.535 117.923 144.889 118.833 146.565 120.66C148.19 122.53 149 125.142 149 128.487V129.316C149 129.567 148.975 129.743 148.925 129.849H135.756C135.806 131.437 136.183 132.611 136.898 133.377C137.557 134.193 138.549 134.607 139.867 134.607C140.733 134.607 141.468 134.425 142.077 134.067C142.227 134.023 142.372 133.929 142.491 133.804C142.623 133.678 142.755 133.54 142.911 133.383C142.955 133.232 143.15 133.025 143.476 132.774C143.809 132.523 144.28 132.391 144.889 132.391L144.882 132.379Z" fill="black"/>
</g>
<defs>
<clipPath id="clip0_237_319">
<rect width="149" height="139.239" fill="white"/>
</clipPath>
</defs>
</svg>
